<?xml version="1.0" encoding="iso-8859-1"?>
<!-- Uploaded to: SVG Repo, www.svgrepo.com, Generator: SVG Repo Mixer Tools -->
<svg fill="#000000" height="800px" width="800px" version="1.1" id="Layer_1" xmlns="http://www.w3.org/2000/svg" xmlns:xlink="http://www.w3.org/1999/xlink" 
	 viewBox="0 0 512 512" xml:space="preserve">
<g>
	<g>
		<path d="M491.752,34h-472C8.728,34,0,40.972,0,52v304c0,11.028,8.728,22,19.752,22H188v67.86l-34.344,22.812
			c-1.46,0.98-2.18,3.8-1.672,5.488c0.516,1.688,2.008,3.84,3.764,3.84h200c1.764,0,3.32-2.156,3.828-3.84
			c0.516-1.684-0.016-4.008-1.484-4.988L324,445.86V378h167.752C502.784,378,512,367.028,512,356V52
			C512,40.972,502.78,34,491.752,34z M272,400c0,8.824-7.18,16-16,16c-8.828,0-16-7.176-16-16v-22h32V400z M484,350H28V62h456V350z"
			/>
	</g>
</g>
</svg>