<?xml version="1.0" encoding="iso-8859-1"?>
<!-- Uploaded to: SVG Repo, www.svgrepo.com, Generator: SVG Repo Mixer Tools -->
<svg fill="#000000" height="800px" width="800px" version="1.1" id="Layer_1" xmlns="http://www.w3.org/2000/svg" xmlns:xlink="http://www.w3.org/1999/xlink" 
	 viewBox="0 0 480 480" xml:space="preserve">
<g>
	<g>
		<g>
			<path d="M379.502,154.36v-96.6c4.872-4.4,8-10.696,8-17.76V24c0-13.232-10.768-24-24-24h-32c-13.232,0-24,10.768-24,24v16
				c0,7.064,3.128,13.36,8,17.76v96.6c-23.096,6.904-40,28.328-40,53.64v248c0,13.232,10.768,24,24,24h96c13.232,0,24-10.768,24-24
				V208C419.502,182.68,402.606,161.264,379.502,154.36z M323.502,24c0-4.408,3.584-8,8-8h32c4.416,0,8,3.592,8,8v16
				c0,4.408-3.584,8-8,8h-32c-4.416,0-8-3.592-8-8V24z M331.502,152V64h32v88H331.502z M363.502,168c0,8.824-7.176,16-16,16
				c-8.824,0-16-7.176-16-16H363.502z M403.502,456c0,4.408-3.584,8-8,8h-96c-4.416,0-8-3.592-8-8v-80h18.016
				c4.632,17.256,20.064,29.52,38.464,29.52c18.144,0,33.808-12.48,38.464-29.52h17.056V456z M403.502,360h-23.76
				c-4.176,0-7.648,3.216-7.976,7.376c-0.96,12.416-11.416,22.144-23.792,22.144c-12.512,0-22.744-9.536-23.784-22.176
				c-0.336-4.152-3.808-7.344-7.968-7.344h-24.72v-80h24.72c4.424,0,8-3.584,8-8c0-0.768-0.088-1.576-0.24-2.48
				c0-13.232,10.768-24,24-24s24,10.768,23.912,24.704c-0.008,0.072-0.104,0.928-0.112,1c-0.216,2.248,0.512,4.48,2.04,6.152
				c1.512,1.672,3.664,2.624,5.92,2.624h23.76V360z M403.502,264h-15.904c-2.696-19.456-19.44-34.48-39.616-34.48
				c-20.176,0-36.92,15.024-39.616,34.48h-16.864v-56c0-16.496,10.04-30.672,24.328-36.784c1.632,16.12,15.128,28.784,31.672,28.784
				s30.04-12.664,31.672-28.784c14.288,6.112,24.328,20.288,24.328,36.784V264z"/>
			<circle cx="355.902" cy="327.752" r="7.624"/>
			<circle cx="331.502" cy="311.624" r="7.624"/>
			<circle cx="339.126" cy="327.752" r="7.624"/>
			<circle cx="347.502" cy="311.624" r="7.624"/>
			<circle cx="363.502" cy="311.624" r="7.624"/>
			<circle cx="347.502" cy="343.872" r="7.624"/>
			<path d="M355.91,290.184c1.824-3.152,1.6-6.8,0.032-9.8c-3.384,0.136-6.648,1.768-8.472,4.928c-1.824,3.152-1.6,6.792-0.024,9.8
				C350.83,294.976,354.094,293.344,355.91,290.184z"/>
			<path d="M228.862,207.256c-2.824-13.608-6.168-25.152-9.968-34.32c-1.232-2.984-4.16-4.936-7.392-4.936h-127.6
				c-3.176,0-4.456,1.88-5.728,4.792c-5.968,13.616-10.672,30.096-10.672,41.528v0.008c-8,16.552-6.96,33.56-6.96,45.504
				c0,50.96,33.904,92.848,78.96,97.096V464h-24c-4.424,0-8,3.584-8,8c0,4.416,3.576,8,8,8h64c4.424,0,8-3.584,8-8
				c0-4.416-3.576-8-8-8h-24V356.888c44.648-4.72,79.68-46.288,79.68-96.728c0-13.736-2.424-34.008-6.32-52.896V207.256z M89.27,184
				h116.744c1.688,4.712,3.296,10.104,4.784,16c-1.32,0.016-2.6,0.192-3.904,0.28c-1.264,0.088-2.536,0.112-3.784,0.272
				c-1.368,0.176-2.688,0.496-4.032,0.76c-1.248,0.24-2.52,0.424-3.744,0.736c-1.304,0.336-2.552,0.808-3.832,1.224
				c-1.208,0.392-2.44,0.72-3.616,1.184c-1.264,0.496-2.456,1.12-3.688,1.696c-1.12,0.52-2.272,0.984-3.352,1.568
				c-1.248,0.672-2.416,1.48-3.624,2.232c-0.984,0.616-2,1.168-2.952,1.84c-1.256,0.888-2.408,1.904-3.6,2.88
				c-0.808,0.664-1.664,1.264-2.44,1.968c-1.32,1.2-2.52,2.52-3.736,3.824c-0.552,0.592-1.168,1.128-1.696,1.744
				c-1.704,1.976-3.296,4.064-4.768,6.256C143.534,211.696,122.638,202,99.966,202c-2.76,0-5.504,0.16-8.232,0.464
				c-0.92,0.104-1.832,0.304-2.744,0.432c-1.8,0.264-3.592,0.52-5.368,0.912c-0.184,0.04-0.368,0.056-0.552,0.096
				C84.982,196.504,87.07,189.744,89.27,184z M147.054,341.384c-39.776-0.024-72.112-36.592-72.112-81.544
				c0-9.776,1.592-24.032,4.216-38.04c0.416-0.152,0.824-0.328,1.248-0.472c0.728-0.248,1.464-0.48,2.2-0.696
				c1.192-0.36,2.384-0.68,3.592-0.96c0.72-0.168,1.44-0.344,2.168-0.488c1.296-0.256,2.608-0.456,3.92-0.624
				c0.624-0.08,1.248-0.192,1.88-0.248c1.936-0.192,3.88-0.304,5.832-0.304c21.56,0,41.104,11.08,52.272,29.648
				c0.376,0.624,0.832,1.184,1.352,1.672c0.224,0.216,0.496,0.368,0.752,0.56c0.304,0.232,0.6,0.48,0.936,0.664
				c0.344,0.184,0.712,0.304,1.072,0.44c0.288,0.104,0.568,0.232,0.872,0.304c0.36,0.088,0.72,0.104,1.096,0.144
				c0.264,0.024,0.512,0.104,0.776,0.104c0.208,0,0.432-0.008,0.64-0.024c3.032-0.24,5.656-2.176,6.792-5
				c0.936-2.344,2.048-4.576,3.296-6.704c1.056-1.792,2.256-3.472,3.52-5.096c0.2-0.264,0.36-0.552,0.568-0.816
				c7.384-9.136,17.88-15.256,29.616-17.192c0.32-0.048,0.64-0.12,0.96-0.168c1.664-0.24,3.36-0.312,5.064-0.376
				c1.04-0.032,2.08-0.072,3.144-0.032c0.528,0.016,1.088,0.112,1.624,0.152c2.992,15.992,4.864,32.712,4.864,43.896
				C219.214,304.96,186.846,341.384,147.054,341.384z"/>
			<circle cx="107.166" cy="255.664" r="8"/>
			<circle cx="139.166" cy="303.664" r="8"/>
			<circle cx="189.182" cy="271.664" r="8"/>
		</g>
	</g>
</g>
</svg>